<?xml version="1.0" encoding="utf-8"?>
<!-- Generator: Adobe Illustrator 18.1.1, SVG Export Plug-In . SVG Version: 6.00 Build 0)  -->
<!DOCTYPE svg PUBLIC "-//W3C//DTD SVG 1.1//EN" "http://www.w3.org/Graphics/SVG/1.1/DTD/svg11.dtd">
<svg version="1.1" id="Layer_1" xmlns="http://www.w3.org/2000/svg" xmlns:xlink="http://www.w3.org/1999/xlink" x="0px" y="0px"
	 viewBox="0 0 72 72" enable-background="new 0 0 72 72" xml:space="preserve">
<path fill="#D6D6D6" d="M35.9,70.9c-11.9,0-18.3-6.9-18.6-7.2l-0.2-0.2L17,61.1l-0.1,0l-0.2-0.2c-5.6-5.8-6.5-12.7-6.5-13l-0.1-0.5
	l0.3-0.2l-0.1-0.4c-0.6-2.9-0.2-6.4-0.2-6.6l0.1-0.4l0.2-0.1c-0.4-0.7,0-3.3,0.8-5.3c0.8-2,2.5-4.8,2.9-5.6l0-1.2l0.1-0.2
	c0.1-0.2,0.7-1.3,0.9-1.7c0.2-0.4,1.5-1.7,2-2.3L27.3,2.1h1.1l0.9-0.9h2.9l1.6,1.7V13H38V3l1.5-1.8h2.9l0.9,1h1.1l0.2,0.4
	c0.3,0.6,6.7,13.7,7.1,14.5c0.3,0.6,0.4,1.2,0.4,1.6c0,0.1,0,0.2,0,0.3c0.1,0.2,0.5,1.1,1,1.9c0.1-0.2,0.1-0.5,0.2-0.7
	c0.2-0.7,0.4-1.4,0.5-1.6c0.3-0.9,1.3-1.2,1.4-1.2l0.1,0h3.7c1.1,0,1.5,0.6,1.6,1.1l1.4,4.1l0.1,8.4l-2.6,1.7
	c0.8,1.8,2.5,6.1,1.9,7.1l0.1,0.3c0,0.1,0.3,1.4,0.3,2.9c0,1.5-0.3,3.8-0.4,4.1c0,0.1,0,0.2-0.1,0.3c0.2,0.2,0.3,0.4,0.3,0.6
	c0,0.5-0.4,3.6-2.5,7.5c-1.7,3.2-3.5,5-4.3,5.6c0,1.9,0,2.1-0.1,2.2C54.5,64,47.6,70.9,35.9,70.9"/>
<path fill="#C1C0C0" d="M34.6,38.4c0,0,1.8-0.1,3,1.1c1.2,1.2,2,3.4,1.4,5.5c-0.7,2-2,2.8-2.8,3c-0.8,0.2-0.5,0.5,0,0.5
	c0.5,0,1.8-0.5,2.1-0.6s1.2,0.7,1.2,0.7l1.1-0.9l12.8,11.3l1.2,1.8c0,0,3.8-4.4,4.7-6.5c0.9-2.1,2.2-5.5,2.1-6.3
	c-0.1-0.7,0.1-3.6,0-5.4c0-1.8-0.2-3.6-0.2-4.3c-0.1-0.7-2.1-5.4-1.9-6c0.2-0.6,2.2-1.3,2.3-1.8c0.1-0.5,0.2-7.3-0.1-8.5
	S61,18.6,60.2,18c-0.8-0.6-4.7-0.9-5.2-0.6c-0.5,0.3-1.8,1.9-1.9,2.3c0,0.3-10.7,9-10.7,9l-1.7,1.7l-0.9,6.7h-2.7l-0.2,1.1
	C36.9,38.2,34.8,38.3,34.6,38.4"/>
<path fill="#ACACAC" d="M42.2,40.3l0,6.3l18.7,0.6c0,0,0.6-1.5,0.7-3.4c0.1-1.9-0.5-3.7-0.8-4.1C60.5,39.3,42.2,40.3,42.2,40.3"/>
<path fill="#ACACAC" d="M37.9,49.4l6.9,14.9c0,0-0.1,0.7-0.3,0.9c-0.2,0.2-3.3,0.9-3.3,0.9l1.2,3.9c0,0,5.6-1.4,8.7-3.7
	c3.1-2.4,3.4-3.6,3.5-4.4c0.1-0.8,2.5-3.6,3-4.4c0.6-0.7-10.4-7.7-10.4-7.7L43.6,50l-2.9-2.2L37.9,49.4z"/>
<path fill="#ACACAC" d="M36,13.3l1.9,2.3v19.7l2,1.8V35l0.2-1l2-3.4c0,0,0.1-0.5,0.8,0c0.7,0.5,1,0.7,1,0.7s-0.1,0.7-0.2,0.9
	c-0.1,0.2-2.2,3.1-2.2,3.1l3.2,3.8l16.5-8.5L56.6,28v-6.2c0,0-0.7,0.1-0.6-0.5c0.1-0.6,0.5-3.9,0.5-3.9s-1.8,0-2,0.2
	c-0.2,0.2-1.9,3.1-1.9,3.1s-7.9-18-8.1-18.2c-0.2-0.2-1.2-0.3-1.2-0.3l-1.6-0.9c0,0-1.8-0.3-2.1-0.1c-0.3,0.2-1.3,1.6-1.3,1.6
	L38,12.5l-0.5,0.6L36,13.3z"/>
<path fill="#8C8C8C" d="M31.9,1.9L33,3.2v10.6h5.8V3.3L39.9,2h2.1l0.9,1h0.9c0,0,6.7,13.7,7.1,14.5c0.4,0.8,0.3,1.5,0.4,1.8
	c0.1,0.3,1.7,3.4,1.9,3.4c0,0,0,0,0,0c0.1-0.1,1-3.3,1.2-3.9c0.2-0.6,0.8-0.7,0.8-0.7h3.6c0.8,0,0.9,0.5,0.9,0.5l1.4,4.1l0.1,7.8
	l-2.8,1.8c1.1,1.7,2.5,6.7,2.3,6.8c-0.2,0.1-1.2,0.6-1.2,0.6l1.1,0.4c0,0,0.2,1.3,0.3,2.7c0,1.5-0.3,3.7-0.3,3.9
	c0,0.2-0.8,0.5-0.8,0.5s0.9,0.4,0.9,0.6c0,0.2-0.3,3.2-2.4,7.1c-2,3.9-4.3,5.6-4.3,5.6s0,2.2,0,2.4c0,0.2-6.3,7.1-18,7.1s-18-7-18-7
	l-0.1-2.7l-0.5-0.1c-5.5-5.7-6.3-12.5-6.3-12.5l1.1-0.7l-0.9-0.5c-0.6-2.8-0.2-6.3-0.2-6.3s1.1-0.6,1.1-0.8
	c-0.1-0.2-0.8-0.1-0.9-0.3S11,37,12,34.8c0.9-2.2,3-5.7,3-5.7l0-1.3c0,0,0.6-1.3,0.9-1.6c0.2-0.4,2-2.3,2-2.3l10-21.1h1l0.9-0.9
	H31.9 M32.5,0.4h-0.7h-2.3h-0.7l-0.5,0.5L28,1.3h-0.3h-1l-0.4,0.9l-9.9,20.9c-0.7,0.8-1.7,1.9-2,2.3c-0.3,0.4-0.8,1.5-1,1.8
	l-0.2,0.3l0,0.4l0,0.8c-0.6,1-2.1,3.6-2.9,5.4c-0.5,1.2-1.2,3.7-1,5.2l0,0l-0.1,0.8c0,0.2-0.5,3.7,0.2,6.7L9.3,47l0.1,1
	c0,0.3,1,7.5,6.7,13.4l0.1,0.1l0.1,1.7l0,0.6l0.4,0.4c0.3,0.3,7,7.5,19.2,7.5c11.9,0,19.3-6.9,19.5-8.4c0-0.1,0.1-0.3,0.1-2
	c0.9-0.8,2.6-2.6,4.2-5.6c2.1-4,2.6-7.3,2.6-7.9c0-0.3-0.1-0.5-0.2-0.7c0.1-0.4,0.4-2.7,0.4-4.2c0-1.5-0.3-2.7-0.3-3
	c0.3-0.7,0.1-1.7-0.6-4c-0.3-0.9-0.7-2-1.1-3l1.6-1l0.7-0.5l0-0.9l-0.1-7.8l0-0.3l-0.1-0.2l-1.4-4c-0.2-0.9-1-1.7-2.4-1.7h-3.6h-0.2
	l-0.2,0.1c-0.7,0.2-1.5,0.7-1.9,1.7c0,0.1-0.1,0.2-0.1,0.4c0,0,0,0,0,0c0,0,0-0.1,0-0.1c0-0.4-0.1-1.1-0.5-1.8
	c-0.4-0.8-6.8-14-7.1-14.5l-0.4-0.9h-1h-0.2L43.3,1l-0.5-0.6h-0.7h-2.1h-0.7L38.7,1l-1.1,1.3l-0.4,0.4v0.6v8.9h-2.6v-9V2.5l-0.4-0.5
	L33,0.8L32.5,0.4z"/>
<path fill="none" stroke="#8C8C8C" stroke-width="0.8" stroke-miterlimit="10" d="M17.2,61.3c0,0,0.3-1.5,1.4-2.5
	c1-1,12.2-11,12.2-11s2.1,2,5.2,2c3.1,0,4.8-2,4.8-2l12.8,11.3c0,0,1.1,1.6,0.9,3"/>
<path fill="none" stroke="#8C8C8C" stroke-miterlimit="10" d="M18.5,59.2c0,0,5.9,7.6,17.3,7.6c11.4,0,17.7-7.5,17.7-7.5"/>
<line fill="none" stroke="#8C8C8C" stroke-width="0.6" stroke-miterlimit="10" x1="20.1" y1="61" x2="17.7" y2="63.7"/>
<line fill="none" stroke="#8C8C8C" stroke-width="0.6" stroke-miterlimit="10" x1="19.4" y1="65.4" x2="21.9" y2="62.3"/>
<line fill="none" stroke="#8C8C8C" stroke-width="0.6" stroke-miterlimit="10" x1="21.9" y1="67" x2="23.9" y2="63.7"/>
<line fill="none" stroke="#8C8C8C" stroke-width="0.6" stroke-miterlimit="10" x1="24.8" y1="68.4" x2="26.6" y2="64.9"/>
<line fill="none" stroke="#8C8C8C" stroke-width="0.6" stroke-miterlimit="10" x1="27.8" y1="69.4" x2="29.1" y2="65.9"/>
<line fill="none" stroke="#8C8C8C" stroke-width="0.6" stroke-miterlimit="10" x1="31" y1="70.1" x2="31.8" y2="66.5"/>
<line fill="none" stroke="#8C8C8C" stroke-width="0.6" stroke-miterlimit="10" x1="34.2" y1="70.6" x2="34.3" y2="66.9"/>
<line fill="none" stroke="#8C8C8C" stroke-width="0.6" stroke-miterlimit="10" x1="37.3" y1="66.9" x2="37.5" y2="70.9"/>
<line fill="none" stroke="#8C8C8C" stroke-width="0.6" stroke-miterlimit="10" x1="39.9" y1="66.5" x2="40.8" y2="70.3"/>
<line fill="none" stroke="#8C8C8C" stroke-width="0.6" stroke-miterlimit="10" x1="42.6" y1="65.9" x2="44.1" y2="69.3"/>
<line fill="none" stroke="#8C8C8C" stroke-width="0.6" stroke-miterlimit="10" x1="45.3" y1="65.1" x2="47" y2="68.1"/>
<line fill="none" stroke="#8C8C8C" stroke-width="0.6" stroke-miterlimit="10" x1="47.7" y1="63.8" x2="49.8" y2="67"/>
<line fill="none" stroke="#8C8C8C" stroke-width="0.6" stroke-miterlimit="10" x1="50.1" y1="62.5" x2="52.3" y2="65.3"/>
<line fill="none" stroke="#8C8C8C" stroke-width="0.6" stroke-miterlimit="10" x1="51.8" y1="61.1" x2="54.1" y2="63.4"/>
<circle fill="none" stroke="#8C8C8C" stroke-width="0.6" stroke-miterlimit="10" cx="35.9" cy="43.3" r="5.2"/>
<path fill="#8C8C8C" d="M37.5,58.6c0,0.9-0.7,1.6-1.6,1.6c-0.9,0-1.6-0.7-1.6-1.6c0-0.9,0.7-1.6,1.6-1.6
	C36.8,57,37.5,57.7,37.5,58.6"/>
<path fill="#8C8C8C" d="M37.5,53.4c0,0.9-0.7,1.6-1.6,1.6c-0.9,0-1.6-0.7-1.6-1.6c0-0.9,0.7-1.6,1.6-1.6
	C36.8,51.8,37.5,52.5,37.5,53.4"/>
<path fill="#8C8C8C" d="M33.6,52.8c0,0.9-0.7,1.6-1.6,1.6c-0.9,0-1.6-0.7-1.6-1.6c0-0.9,0.7-1.6,1.6-1.6
	C32.9,51.3,33.6,52,33.6,52.8"/>
<path fill="#8C8C8C" d="M25.8,19.5c0,0.9-0.7,1.6-1.6,1.6c-0.9,0-1.6-0.7-1.6-1.6c0-0.9,0.7-1.6,1.6-1.6
	C25.1,17.9,25.8,18.6,25.8,19.5"/>
<circle fill="none" stroke="#8C8C8C" stroke-width="0.5" stroke-miterlimit="10" cx="22.9" cy="31.9" r="1.9"/>
<path fill="#8C8C8C" d="M36.4,19.5c0,0.3-0.2,0.5-0.5,0.5c-0.3,0-0.5-0.2-0.5-0.5c0-0.3,0.2-0.5,0.5-0.5
	C36.1,19,36.4,19.3,36.4,19.5"/>
<path fill="#8C8C8C" d="M29,12.9c0,0.9-0.7,1.6-1.6,1.6c-0.9,0-1.6-0.7-1.6-1.6c0-0.9,0.7-1.6,1.6-1.6C28.3,11.3,29,12,29,12.9"/>
<path fill="#8C8C8C" d="M46.1,12.9c0,0.9-0.7,1.6-1.6,1.6c-0.9,0-1.6-0.7-1.6-1.6c0-0.9,0.7-1.6,1.6-1.6
	C45.4,11.3,46.1,12,46.1,12.9"/>
<path fill="#8C8C8C" d="M48.9,19.2c0,0.9-0.7,1.6-1.6,1.6s-1.6-0.7-1.6-1.6s0.7-1.6,1.6-1.6S48.9,18.3,48.9,19.2"/>
<path fill="#8C8C8C" d="M31.7,57.5c0,0.9-0.7,1.6-1.6,1.6c-0.9,0-1.6-0.7-1.6-1.6c0-0.9,0.7-1.6,1.6-1.6C31,56,31.7,56.7,31.7,57.5"
	/>
<path fill="#8C8C8C" d="M24.6,59.3c0,0.3-0.3,0.6-0.6,0.6c-0.3,0-0.6-0.3-0.6-0.6c0-0.3,0.3-0.6,0.6-0.6
	C24.4,58.7,24.6,59,24.6,59.3"/>
<path fill="#8C8C8C" d="M48.5,59.3c0,0.3-0.3,0.6-0.6,0.6c-0.3,0-0.6-0.3-0.6-0.6c0-0.3,0.3-0.6,0.6-0.6
	C48.2,58.7,48.5,59,48.5,59.3"/>
<path fill="#8C8C8C" d="M43.2,57.5c0,0.9-0.7,1.6-1.6,1.6c-0.9,0-1.6-0.7-1.6-1.6c0-0.9,0.7-1.6,1.6-1.6
	C42.5,56,43.2,56.7,43.2,57.5"/>
<path fill="#8C8C8C" d="M41.3,52.8c0,0.9-0.7,1.6-1.6,1.6c-0.9,0-1.6-0.7-1.6-1.6c0-0.9,0.7-1.6,1.6-1.6
	C40.5,51.3,41.3,52,41.3,52.8"/>
<line fill="none" stroke="#8C8C8C" stroke-width="0.6" stroke-miterlimit="10" x1="19.6" y1="60.2" x2="30.6" y2="49.8"/>
<line fill="none" stroke="#8C8C8C" stroke-width="0.6" stroke-miterlimit="10" x1="52.4" y1="60.2" x2="41" y2="49.9"/>
<line fill="none" stroke="#8C8C8C" stroke-width="0.5" stroke-miterlimit="10" x1="23.9" y1="63.5" x2="28.5" y2="51.7"/>
<line fill="none" stroke="#8C8C8C" stroke-width="0.5" stroke-miterlimit="10" x1="47.7" y1="63.5" x2="43.1" y2="51.7"/>
<path fill="none" stroke="#8C8C8C" stroke-width="0.5" stroke-miterlimit="10" d="M26.9,55.8c0,0,3.1,2.8,9,2.8
	c5.9,0,8.7-2.8,8.7-2.8"/>
<path fill="none" stroke="#8C8C8C" stroke-width="0.5" stroke-miterlimit="10" d="M28.9,51.2c0,0,2.4,2.1,7,2.1
	c4.6,0,6.8-2.1,6.8-2.1"/>
<path fill="none" stroke="#8C8C8C" stroke-width="0.5" stroke-miterlimit="10" d="M32.6,66.5c0,0,0-5.1,0.1-5.4
	c0-0.1,0.6-0.1,1.4-0.1c1.9,0,5,0.1,5,0.2c0.1,0.2,0.2,5.3,0.2,5.3"/>
<path fill="none" stroke="#8C8C8C" stroke-width="0.5" stroke-miterlimit="10" d="M34.2,61.2V63c0,0,0.1,0.5,0.5,0.5h1.1H37
	c0,0,0.7,0,0.7-0.5v-1.9"/>
<line fill="none" stroke="#8C8C8C" stroke-width="0.5" stroke-miterlimit="10" x1="36" y1="63.6" x2="36" y2="66.6"/>
<path fill="#8C8C8C" d="M42,66.1c-0.3-0.8-2-4.8-2-5c-0.1-0.2,0-0.3,1.3-0.9c0,0,4.4-2,4.7-1.6l-0.3,0.4l0.2-0.2l0,0.2
	c-0.3,0-2.8,1-4.4,1.7c-0.6,0.3-0.9,0.4-1,0.5c0.2,0.6,1.2,3.1,1.9,4.8L42,66.1z"/>
<path fill="#8C8C8C" d="M42.7,62.6c-0.3,0-0.6-0.2-0.7-0.4l-0.7-1.7l0.5-0.2l0.7,1.7c0,0,0.1,0.2,0.3,0.1l1.9-0.8
	c0.1,0,0.3-0.1,0.3-0.3c0,0,0-0.1,0-0.1l-0.7-1.7l0.5-0.2l0.7,1.7c0.1,0.2,0.1,0.3,0,0.5c-0.2,0.3-0.6,0.5-0.6,0.5L43,62.6
	C42.9,62.6,42.8,62.6,42.7,62.6"/>
<rect x="43" y="63.2" transform="matrix(0.3858 0.9226 -0.9226 0.3858 85.8956 -2.1265)" fill="#8C8C8C" width="3" height="0.5"/>
<path fill="#8C8C8C" d="M30,66.1c0.3-0.8,2-4.8,2-5c0.1-0.2,0-0.3-1.3-0.9c0,0-4.4-2-4.7-1.6l-0.1-0.1l-0.1,0.2v0.2
	c0.3,0,3.2,1,4.8,1.7c0.6,0.3,0.9,0.4,1,0.5c-0.2,0.6-1.2,3.1-1.9,4.8L30,66.1z"/>
<path fill="#8C8C8C" d="M29.3,62.7c0.3,0,0.6-0.2,0.7-0.4l0.7-1.7l-0.5-0.2l-0.7,1.7c0,0-0.1,0.2-0.3,0.1l-1.9-0.8
	c-0.1,0-0.3-0.1-0.3-0.3c0,0,0-0.1,0-0.1l0.7-1.7l-0.5-0.2l-0.7,1.7c-0.1,0.2-0.1,0.3,0,0.5c0.2,0.3,0.6,0.5,0.6,0.5l1.9,0.8
	C29.1,62.7,29.2,62.7,29.3,62.7"/>
<rect x="25.9" y="63.2" transform="matrix(-0.3858 0.9226 -0.9226 -0.3858 96.5588 62.7022)" fill="#8C8C8C" width="3" height="0.5"/>
<path fill="none" stroke="#8C8C8C" stroke-width="0.7" stroke-miterlimit="10" d="M22.3,55.3c0,0-3.4-3.9-4.2-8.1l11.2-0.9l0.1-6.2
	l-16.7-7.9"/>
<path fill="none" stroke="#8C8C8C" stroke-width="0.5" stroke-miterlimit="10" d="M10.2,40.1c0,0,3.4-0.7,4.1-0.7
	c0.7,0,15,0.7,15,0.7"/>
<path fill="none" stroke="#8C8C8C" stroke-width="0.5" stroke-miterlimit="10" d="M10.5,46.8c0,0,1.4,0.3,2.8,0.3h4.8"/>
<path fill="none" stroke="#8C8C8C" stroke-width="0.5" stroke-miterlimit="10" d="M20.1,57.2c0,0-3.9-3.9-4.9-10"/>
<line fill="none" stroke="#8C8C8C" stroke-width="0.5" stroke-miterlimit="10" x1="14" y1="57" x2="18" y2="54.6"/>
<line fill="none" stroke="#8C8C8C" stroke-width="0.5" stroke-miterlimit="10" x1="11.7" y1="53" x2="16.2" y2="51.2"/>
<line fill="none" stroke="#8C8C8C" stroke-width="0.5" stroke-miterlimit="10" x1="17" y1="52.7" x2="19.7" y2="51.4"/>
<path fill="none" stroke="#8C8C8C" stroke-width="0.5" stroke-miterlimit="10" d="M21.6,36.4c0,0-0.7,1-1.2,3.2"/>
<path fill="none" stroke="#8C8C8C" stroke-width="0.5" stroke-miterlimit="10" d="M16.4,33.9c0,0-1.4,3-1.8,5.5V47"/>
<path fill="#8C8C8C" d="M18.3,43.4c0,0.6-0.5,1-1,1c-0.6,0-1-0.5-1-1c0-0.6,0.5-1,1-1C17.9,42.4,18.3,42.8,18.3,43.4"/>
<path fill="#8C8C8C" d="M26,43.4c0,0.4-0.3,0.7-0.7,0.7c-0.4,0-0.7-0.3-0.7-0.7c0-0.4,0.3-0.7,0.7-0.7C25.7,42.7,26,43,26,43.4"/>
<path fill="#8C8C8C" d="M50.2,43.4c0,0.4-0.3,0.7-0.7,0.7c-0.4,0-0.7-0.3-0.7-0.7c0-0.4,0.3-0.7,0.7-0.7
	C49.9,42.7,50.2,43,50.2,43.4"/>
<path fill="#8C8C8C" d="M22.3,43.4c0,0.4-0.3,0.7-0.7,0.7c-0.4,0-0.7-0.3-0.7-0.7c0-0.4,0.3-0.7,0.7-0.7C22,42.7,22.3,43,22.3,43.4"
	/>
<line fill="none" stroke="#8C8C8C" stroke-width="0.5" stroke-miterlimit="10" x1="10.6" y1="41.9" x2="14.5" y2="41.4"/>
<line fill="none" stroke="#8C8C8C" stroke-width="0.5" stroke-miterlimit="10" x1="14.5" y1="43.4" x2="10.5" y2="43.4"/>
<line fill="none" stroke="#8C8C8C" stroke-width="0.5" stroke-miterlimit="10" x1="10.5" y1="45.1" x2="14.5" y2="45.3"/>
<polyline fill="none" stroke="#8C8C8C" stroke-width="0.5" stroke-miterlimit="10" points="14.6,41.1 28,41.5 28,44.8 18,45.6 
	14.8,45.6 "/>
<polyline fill="none" stroke="#8C8C8C" stroke-width="0.8" stroke-miterlimit="10" points="33.3,13.4 31.7,15 31.7,37.1 39.9,37.1 
	39.9,14.7 38.2,13 "/>
<path fill="none" stroke="#8C8C8C" stroke-width="0.5" stroke-miterlimit="10" d="M13.1,31.2c0,0,2.2-3,3.2-3.8
	c1-0.8,1.6-0.1,2.3-0.5c0.7-0.4,5.5-5.5,13-6.9"/>
<line fill="none" stroke="#8C8C8C" stroke-width="0.5" stroke-miterlimit="10" x1="29.1" y1="20.5" x2="30.3" y2="1.4"/>
<line fill="none" stroke="#8C8C8C" stroke-width="0.5" stroke-miterlimit="10" x1="31.7" y1="15" x2="31.7" y2="1.2"/>
<polyline fill="none" stroke="#8C8C8C" stroke-width="0.5" stroke-miterlimit="10" points="20,25.7 29.1,6.6 30,6.6 "/>
<path fill="none" stroke="#8C8C8C" stroke-width="0.5" stroke-miterlimit="10" d="M14.6,28.7c0,0,6.4,4.2,6.5,4.2
	c0.1,0.1-0.8,1.2-1.4,2.5"/>
<path fill="none" stroke="#8C8C8C" stroke-width="0.5" stroke-miterlimit="10" d="M22.3,36.6c0,0,2.3-4.6,6.6-6.6"/>
<line fill="none" stroke="#8C8C8C" stroke-width="0.5" stroke-miterlimit="10" x1="25" y1="22.3" x2="31.6" y2="35.1"/>
<path fill="none" stroke="#8C8C8C" stroke-width="0.5" stroke-miterlimit="10" d="M18.1,30.8c0,0,3.6-4.6,7.9-6.6"/>
<polyline fill="none" stroke="#8C8C8C" stroke-width="0.5" stroke-miterlimit="10" points="31.7,27.4 29.4,27.4 29.4,23.4 28,21 "/>
<rect x="33.7" y="18.3" fill="none" stroke="#8C8C8C" stroke-width="0.5" stroke-miterlimit="10" width="4.4" height="17"/>
<line fill="none" stroke="#8C8C8C" stroke-width="0.5" stroke-miterlimit="10" x1="33.7" y1="30.1" x2="38" y2="30.1"/>
<line fill="none" stroke="#8C8C8C" stroke-width="0.5" stroke-miterlimit="10" x1="33.7" y1="21.3" x2="38" y2="21.3"/>
<polyline fill="none" stroke="#8C8C8C" stroke-width="0.5" stroke-miterlimit="10" points="18.5,49.1 20,48.4 23.5,48.3 24.4,50.3 
	22.4,52.7 21,53.4 "/>
<line fill="none" stroke="#8C8C8C" stroke-width="0.5" stroke-miterlimit="10" x1="27.1" y1="21.3" x2="27.6" y2="14"/>
<path fill="none" stroke="#8C8C8C" stroke-width="0.5" stroke-miterlimit="10" d="M40.1,19.2c0,0,8.5,1.1,13.7,7.2"/>
<line fill="none" stroke="#8C8C8C" stroke-width="0.5" stroke-miterlimit="10" x1="39.9" y1="34.6" x2="47.2" y2="21.5"/>
<path fill="none" stroke="#8C8C8C" stroke-width="0.5" stroke-miterlimit="10" d="M42.6,30.2l1.6,1.3l-2.5,3.8c0,0,2,2,3,3.7
	l16.8-8.5"/>
<path fill="none" stroke="#8C8C8C" stroke-width="0.7" stroke-miterlimit="10" d="M61.3,39.5l-19.1,0.8l0,6.3c0,0,15.2,0.7,15.7,0.7
	s2.6,0.1,3.3-0.2"/>
<line fill="none" stroke="#8C8C8C" stroke-width="0.5" stroke-miterlimit="10" x1="57.2" y1="39.6" x2="57.3" y2="47.1"/>
<path fill="none" stroke="#8C8C8C" stroke-width="0.5" stroke-miterlimit="10" d="M49.4,36.7c0,0,0.8,1.6,1.1,3.2"/>
<path fill="none" stroke="#8C8C8C" stroke-width="0.5" stroke-miterlimit="10" d="M55.1,33.7c0,0,1.4,1.2,2.1,5.9"/>
<path fill="none" stroke="#8C8C8C" stroke-width="0.5" stroke-miterlimit="10" d="M49.4,55.2c0,0,3.6-4.4,4-8.1"/>
<path fill="none" stroke="#8C8C8C" stroke-width="0.5" stroke-miterlimit="10" d="M51.4,57.2c0,0,4-4.3,5-10"/>
<line fill="none" stroke="#8C8C8C" stroke-width="0.5" stroke-miterlimit="10" x1="52.6" y1="50" x2="55.2" y2="51"/>
<line fill="none" stroke="#8C8C8C" stroke-width="0.5" stroke-miterlimit="10" x1="54.6" y1="53" x2="58.9" y2="55"/>
<polyline fill="none" stroke="#8C8C8C" stroke-width="0.5" stroke-miterlimit="10" points="51.2,52.6 47.3,49.9 48.4,48.1 
	52.9,48.8 "/>
<polyline fill="none" stroke="#8C8C8C" stroke-width="0.5" stroke-miterlimit="10" points="61.3,45.1 57.3,45.5 43.6,45.5 
	43.6,41.2 57.2,41 61.1,41.4 "/>
<line fill="none" stroke="#8C8C8C" stroke-width="0.5" stroke-miterlimit="10" x1="57.2" y1="43.2" x2="61.6" y2="43.2"/>
<polyline fill="none" stroke="#8C8C8C" stroke-width="0.5" stroke-miterlimit="10" points="61.7,30.8 53.9,26.4 53.6,26.6 
	42.7,36.3 "/>
<line fill="none" stroke="#8C8C8C" stroke-width="0.7" stroke-miterlimit="10" x1="53.2" y1="21.9" x2="53.7" y2="26.5"/>
<path fill="none" stroke="#8C8C8C" stroke-width="0.5" stroke-miterlimit="10" d="M45.8,24.2c0,0,3.8,2.3,5.6,4.3"/>
<path fill="none" stroke="#8C8C8C" stroke-width="0.5" stroke-miterlimit="10" d="M56,33.2c0,0-1.9-3.4-3.8-5.2"/>
<line fill="none" stroke="#8C8C8C" stroke-width="0.5" stroke-miterlimit="10" x1="43.7" y1="37.6" x2="57.4" y2="28.4"/>
<line fill="none" stroke="#8C8C8C" stroke-width="0.5" stroke-miterlimit="10" x1="41.2" y1="1.6" x2="42.5" y2="19.6"/>
<line fill="none" stroke="#8C8C8C" stroke-width="0.5" stroke-miterlimit="10" x1="40" y1="18.9" x2="40.1" y2="1.2"/>
<polyline fill="none" stroke="#8C8C8C" stroke-width="0.5" stroke-miterlimit="10" points="50.9,23.6 42.6,6.6 41.5,6.5 "/>
<polyline fill="none" stroke="#8C8C8C" stroke-width="0.5" stroke-miterlimit="10" points="53.3,22.4 55.3,22.3 56,21.8 58.6,21.8 
	59.4,22.3 61.8,22.5 "/>
<line fill="none" stroke="#8C8C8C" stroke-width="0.5" stroke-miterlimit="10" x1="56" y1="21.8" x2="56.4" y2="17.8"/>
<line fill="none" stroke="#8C8C8C" stroke-width="0.5" stroke-miterlimit="10" x1="57.9" y1="17.8" x2="58.6" y2="21.8"/>
<line fill="none" stroke="#8C8C8C" stroke-width="0.5" stroke-miterlimit="10" x1="53.5" y1="24.4" x2="61.9" y2="24.3"/>
<path fill="none" stroke="#8C8C8C" stroke-width="0.5" stroke-miterlimit="10" d="M44.1,27.2l2.3,1.4c0,0-0.1,2.5-2.2,2.9"/>
<polyline fill="none" stroke="#8C8C8C" stroke-width="0.5" stroke-miterlimit="10" points="39.9,23.8 41.6,23.8 41.6,25.8 40,25.8 
	"/>
<line fill="none" stroke="#8C8C8C" stroke-width="0.45" stroke-miterlimit="10" x1="22.8" y1="32" x2="22.8" y2="34"/>
<line fill="none" stroke="#8C8C8C" stroke-width="0.3" stroke-miterlimit="10" x1="21.9" y1="33.6" x2="21.9" y2="31.9"/>
<line fill="none" stroke="#8C8C8C" stroke-width="0.3" stroke-miterlimit="10" x1="23.7" y1="33.6" x2="23.7" y2="31.9"/>
<path fill="#D6D6D6" d="M25,30.9v1.7c0,0-0.1,1.7-1.9,1.7h-0.3c-1.8,0-1.9-1.7-1.9-1.7v-1.7"/>
<path fill="none" stroke="#8C8C8C" stroke-width="0.6" stroke-miterlimit="10" d="M25,30.9v1.7c0,0-0.1,1.7-1.9,1.7h-0.3
	c-1.8,0-1.9-1.7-1.9-1.7v-1.7"/>
<rect x="21.7" y="32.2" fill="none" stroke="#8C8C8C" stroke-width="0.25" stroke-miterlimit="10" width="2.6" height="0.8"/>
<line fill="none" stroke="#8C8C8C" stroke-width="0.25" stroke-miterlimit="10" x1="22.1" y1="32.1" x2="22.1" y2="30.7"/>
<line fill="none" stroke="#8C8C8C" stroke-width="0.25" stroke-miterlimit="10" x1="23.8" y1="32.1" x2="23.8" y2="30.7"/>
<rect x="18.6" y="29.3" fill="#D6D6D6" width="8.5" height="1.6"/>
<rect x="18.6" y="29.3" fill="none" stroke="#8C8C8C" stroke-width="0.6" stroke-miterlimit="10" width="8.5" height="1.6"/>
<polygon fill="#8C8C8C" points="27.1,29.7 18.6,29.7 18.6,28.6 22.9,28.9 27.1,28.6 "/>
<polygon fill="none" stroke="#8C8C8C" stroke-width="0.6" stroke-miterlimit="10" points="27.1,29.7 18.6,29.7 18.6,28.6 22.9,28.9 
	27.1,28.6 "/>
<rect x="22" y="28.1" fill="#D6D6D6" width="2.1" height="0.7"/>
<rect x="22" y="28.1" fill="none" stroke="#D6D6D6" stroke-width="0.6" stroke-miterlimit="10" width="2.1" height="0.7"/>
<rect x="22" y="28.6" fill="#8C8C8C" width="2.1" height="0.7"/>
</svg>
