<svg fill="none" height="100" viewBox="0 0 100 100" width="100" xmlns="http://www.w3.org/2000/svg" xmlns:xlink="http://www.w3.org/1999/xlink"><mask id="a" height="65" maskUnits="userSpaceOnUse" width="70" x="14" y="17"><path d="m83.9363 17.5344c-.594 4.8494-1.212 9.6987-1.806 14.389l-.0251.1754c-.376 2.9928-.7608 5.978-1.1292 8.9796-.2256 1.8064-.4261 3.6117-.6104 5.3516-.4348 3.9799-.8359 7.7332-1.5891 11.4037-1.4801 7.2234-5.7952 12.1152-13.1883 14.9577-1.6895.6526-3.5293 1.363-5.4531 2.1158-5.9369 2.3075-12.6444 4.9158-18.4647 6.9314-.8785-.4761-4.0056-2.1485-9.8096-5.1425l-.9199-.4761c-8.1037-4.164-13.9578-7.1732-15.8892-16.2454-.569-2.6758-.2006-5.6185.1918-8.7454l.1254-1.0198c1.2294-9.8828 2.5003-19.8734 3.7298-29.5307l.4011-3.1519h64.4343v.0087z" fill="#fff"/></mask><path d="m10.8652 7.51886-5.31024 41.90854c-.45668 3.5909-.97332 7.6624-.01198 12.1489 1.38205 6.4749 4.27258 11.6064 8.83732 15.6866 3.9804 3.5582 8.6945 5.8821 13.2526 8.1298l.0033.0021.0043.0022c.9973.4859 14.2674 7.2593 14.2674 7.2593s17.6975-6.9804 26.7986-10.4678c5.308-2.0341 9.695-5.0117 13.0368-8.85 3.3516-3.8492 5.6067-8.51 6.7032-13.8529.8174-3.9843 1.2447-7.9392 1.6578-11.7633.1744-1.6081 4.9146-40.20344 4.9146-40.20344z" fill="#2dcc30"/><path d="m83.9363 17.5344c-.594 4.8494-1.212 9.6987-1.806 14.389l-.0251.1754c-.376 2.9928-.7608 5.978-1.1292 8.9796-.2256 1.8064-.4261 3.6117-.6104 5.3516-.4348 3.9799-.8359 7.7332-1.5891 11.4037-1.4801 7.2234-5.7952 12.1152-13.1883 14.9577-1.6895.6526-3.5293 1.363-5.4531 2.1158-5.9369 2.3075-12.6444 4.9158-18.4647 6.9314-.8785-.4761-4.0056-2.1485-9.8096-5.1425l-.9199-.4761c-8.1037-4.164-13.9578-7.1732-15.8892-16.2454-.569-2.6758-.2006-5.6185.1918-8.7454l.1254-1.0198c1.2294-9.8828 2.5003-19.8734 3.7298-29.5307l.4011-3.1519h64.4343v.0087z" fill="#081985"/><g mask="url(#a)"><path d="m59.659 71.1462c13.3824-11.2131 18.3809-28.8716 14.6053-45.5485-15.789-6.623-34.0543-4.7546-47.4203 6.4509-13.3671 11.2065-18.38193 28.8651-14.5965 45.5561 15.7638 6.623 34.0292 4.772 47.4126-6.4585z" fill="#081985"/><path d="m47.1957 83.0606c-11.7256 4.0311-24.7265 3.5005-36.6145-1.4872l-2.04806-.8563-.49047-2.1627c-4.27368-18.8482 1.87579-37.9297 16.02983-49.8052 4.5157-3.7903 9.6384-6.6851 15.2135-8.5993 11.7234-4.0312 24.733-3.5017 36.6374 1.486l2.0469.8564.4916 2.1637c4.2573 18.8406-1.8845 37.9231-16.0385 49.7899-4.5146 3.798-9.6461 6.7004-15.2201 8.6157h-.0076z" fill="#081985"/><path d="m58.7327 70.0558c13.3507-11.1902 18.7078-28.4042 15.4532-44.4045-15.2058-5.9846-33.0886-3.7043-46.4328 7.4859-13.3431 11.1902-18.69257 28.3814-15.4532 44.4046 15.2211 5.9693 33.0798 3.7053 46.4328-7.4871z" fill="#fff"/><g fill="#081985"><path d="m23.6527 43.6757 7.0922 8.4588c-1.0518 1.0819-2.0545 2.2258-3.0431 3.3687l-7.0934-8.4588c.9734-1.1287 1.9936-2.2803 3.0454-3.3698zm18.9421-15.3543 7.0923 8.4588c-1.2927.7943-2.569 1.6343-3.83 2.4667l-7.0934-8.4589c1.2545-.8323 2.5221-1.6571 3.8311-2.4666zm-13.0793 9.7041 7.0923 8.4589c-1.1216.9958-2.2344 2.0308-3.3167 3.0734l-7.0923-8.4588c1.0659-1.0579 2.1799-2.0929 3.3167-3.0735zm6.3282-5.1511 7.0923 8.4588c-1.2142.9185-2.4208 1.8522-3.5805 2.7935l-7.0933-8.4588c1.1684-.9577 2.351-1.875 3.5815-2.7935z"/><path d="m13.9194 81.94c-3.9075-8.9589 5.1151-26.3266 21.3008-39.8995 16.1857-13.5718 34.863-19.4398 43.03-14.0392-.1798-1.704-.3978-3.4167-.7553-5.0977-.1875-.0545-.3433-.109-.5297-.1951-10.6346-3.3153-28.198 2.763-44.2987 16.2651-16.1389 13.5413-25.20068 29.838-23.69873 40.8953l.04687.4281c1.62726.6374 3.23826 1.1593 4.90476 1.6343v.0076z"/></g></g><path d="m16.9035 14.3597-.9734 7.6494c-1.1444 8.9567-2.3194 18.2174-3.4562 27.3855l-.1166.9413c-.4044 3.214-.8251 6.537-.109 9.8992 2.4055 11.2534 9.8378 14.9337 18.4539 19.1827.8556.4206 1.7199.8476 2.5842 1.2922l9.0597 4.6379.2648-.1013c7.4095-2.9111 17.5351-6.8878 23.7151-9.2531 8.5691-3.2913 13.7998-9.2759 15.5513-17.7816.7477-3.6651 1.1597-7.4554 1.5565-11.1129.1711-1.6113.3499-3.2684.5602-4.8951.3499-2.8403.7085-5.6653 1.0736-8.4828.7782-6.1011 1.5804-12.4126 2.3194-18.6695l.0774-.6853h-70.5609v-.0077zm64.6163 5.2601c-.5526 4.5138-1.1281 9.0276-1.6807 13.3932l-.0239.1634c-.3499 2.7858-.7085 5.564-1.0507 8.3575-.2104 1.6811-.3968 3.3622-.5679 4.9801-.4044 3.7043-.7782 7.1983-1.4791 10.6149-1.3777 6.7233-5.3941 11.2763-12.2739 13.9227-1.5717.6068-3.2851 1.2682-5.0747 1.9687-5.5261 2.1485-11.7682 4.5759-17.1852 6.452-.8175-.4434-3.7276-2.0003-9.1294-4.7862l-.8556-.4434c-7.5425-3.8753-12.99-6.6775-14.7884-15.1211-.5297-2.4906-.1864-5.2296.1787-8.1396l.1167-.9489c1.1444-9.1986 2.327-18.4975 3.4714-27.4858l.3739-2.934h59.9623l.0076.0076z" fill="#081985"/></svg>